<?xml version="1.0" encoding="UTF-8"?>
<svg id="Layer_2" data-name="Layer 2" xmlns="http://www.w3.org/2000/svg" viewBox="0 0 123.73 159.63">
  <defs>
    <style>
      .cls-1 {
        fill: #b6b6b6;
      }

      .cls-1, .cls-2 {
        stroke-width: 0px;
      }

      .cls-2 {
        fill: #fff;
      }
    </style>
  </defs>
  <g id="Layer_1-2" data-name="Layer 1">
    <g>
      <path class="cls-2" d="M89.6,71.68c3.49,0,6.32-2.83,6.32-6.32v-12.75c0-4.05,3.22-7.37,7.36-7.52,4.29-.15,7.81,3.58,7.81,7.87v2.9c0,3.49,2.83,6.32,6.32,6.32h0c3.49,0,6.32-2.83,6.32-6.32v-3.26c0-10.94-8.76-19.88-19.76-20.16-11.38-.29-20.7,9.39-20.7,20.78v12.13c0,3.49,2.83,6.32,6.32,6.32h0Z"/>
      <path class="cls-2" d="M40.5,90.29v-56.62c0-3.93,2.86-7.44,6.77-7.82,4.48-.44,8.27,3.09,8.27,7.48v44.22c0,3.49,2.83,6.32,6.32,6.32h0c3.49,0,6.32-2.83,6.32-6.32v-43.63c0-10.85-8.32-20.19-19.15-20.73-11.58-.57-21.18,8.69-21.18,20.14v56.95c0,3.49,2.83,6.32,6.32,6.32h0c3.49,0,6.32-2.83,6.32-6.32Z"/>
      <path class="cls-2" d="M12.65,102.07V6.6c0-3.3-2.41-6.25-5.7-6.57C3.17-.33,0,2.63,0,6.32v95.75c0,3.49,2.83,6.32,6.32,6.32h0c3.49,0,6.32-2.83,6.32-6.32Z"/>
      <path class="cls-1" d="M83.27,120.26c0,4.38-3.76,7.9-8.26,7.49-3.92-.35-6.82-3.86-6.82-7.79v-20.26c0-3.49-2.83-6.32-6.32-6.32h0c-3.49,0-6.32,2.83-6.32,6.32v20.57c0,11.44,9.57,20.69,21.16,20.15,10.85-.5,19.21-9.85,19.21-20.72v-32.2c0-3.49-2.83-6.32-6.32-6.32h0c-3.49,0-6.32,2.83-6.32,6.32v32.77Z"/>
      <path class="cls-1" d="M27.86,139.47c0,4.15-3.37,7.52-7.52,7.52h-.17c-4.15,0-7.52-3.37-7.52-7.52v-15.25c0-3.49-2.83-6.32-6.32-6.32h0c-3.49,0-6.32,2.83-6.32,6.32v15.26c0,11.14,9.03,20.17,20.17,20.17h.17c11.14,0,20.17-9.03,20.17-20.17v-27.03c0-3.49-2.83-6.32-6.32-6.32h0c-3.49,0-6.32,2.83-6.32,6.32v27.03Z"/>
      <path class="cls-1" d="M111.09,114.76c0,3.7,3.17,6.65,6.94,6.29,3.29-.31,5.7-3.26,5.7-6.57v-36.49c0-3.49-2.83-6.32-6.32-6.32h0c-3.49,0-6.32,2.83-6.32,6.32v36.76Z"/>
    </g>
  </g>
</svg>